<?xml version="1.0" standalone="no"?>
<!DOCTYPE svg PUBLIC "-//W3C//DTD SVG 20010904//EN"
 "http://www.w3.org/TR/2001/REC-SVG-20010904/DTD/svg10.dtd">
<svg version="1.0" xmlns="http://www.w3.org/2000/svg"
 width="858.000000pt" height="1024.000000pt" viewBox="0 0 858.000000 1024.000000"
 preserveAspectRatio="xMidYMid meet">

<g transform="translate(0.000000,1024.000000) scale(0.100000,-0.100000)"
fill="#000000" stroke="none">
<path d="M7 10233 c-12 -11 -8 -6295 3 -6439 28 -339 111 -624 283 -969 38
-77 82 -159 98 -182 16 -23 29 -45 29 -48 0 -4 13 -27 30 -51 16 -24 44 -65
62 -91 272 -406 721 -864 1208 -1234 124 -94 334 -243 440 -311 127 -82 260
-164 335 -206 44 -24 107 -60 140 -79 126 -72 587 -293 735 -353 259 -105 459
-174 725 -249 l70 -20 90 23 c50 13 126 34 170 46 44 12 94 25 110 30 82 22
279 87 443 145 102 36 352 136 447 179 44 20 107 49 140 64 71 31 366 181 445
225 44 24 174 101 305 180 29 18 218 138 237 151 217 149 524 381 588 446 3 3
37 32 75 65 143 122 410 388 511 510 32 39 61 72 64 75 25 23 168 209 242 315
287 413 460 827 525 1260 17 114 18 286 18 3320 l0 3200 -4281 3 c-2354 1
-4284 -1 -4287 -5z m8194 -395 c2 -7 2 -1376 -1 -3043 l-5 -3030 -28 -125
c-55 -244 -153 -501 -283 -739 -49 -91 -187 -312 -214 -344 -6 -7 -43 -55 -83
-108 -138 -183 -210 -264 -436 -489 -261 -260 -520 -470 -856 -694 -584 -390
-1238 -688 -1912 -872 l-203 -55 -77 21 c-210 56 -581 191 -813 296 -108 48
-457 226 -530 269 -278 165 -382 230 -490 303 -118 81 -329 236 -396 292 -17
14 -52 43 -79 65 -422 345 -809 776 -1039 1159 -154 254 -284 567 -331 794
-52 244 -48 35 -52 3267 -2 1650 -1 3010 2 3023 l5 22 3909 0 c3119 0 3910 -3
3912 -12z"/>
<path d="M507 9703 c-4 -3 -7 -1318 -7 -2921 0 -3184 -3 -2987 57 -3232 158
-646 620 -1287 1358 -1887 624 -507 1406 -925 2125 -1135 l135 -39 90 21 c226
53 576 170 870 289 156 64 566 263 670 326 33 20 83 49 110 64 400 223 835
558 1190 915 487 489 802 1008 925 1523 52 218 50 89 50 3195 l0 2888 -3783 0
c-2081 0 -3787 -3 -3790 -7z m7453 -2930 c0 -1800 -4 -2820 -10 -2878 -71
-632 -499 -1332 -1180 -1931 -146 -127 -190 -161 -190 -143 0 8 14 55 31 104
47 139 199 645 199 665 0 9 -2 19 -6 22 -3 3 -87 -35 -187 -86 -183 -92 -240
-118 -377 -176 -352 -148 -653 -244 -1045 -333 -486 -111 -1164 -130 -1670
-46 -467 77 -922 224 -1353 437 -172 85 -323 165 -363 193 -14 10 -30 14 -36
11 -12 -7 -10 -16 37 -187 12 -44 31 -118 42 -165 10 -47 29 -130 43 -185 31
-130 55 -241 55 -255 0 -36 -393 327 -567 525 -365 414 -609 847 -708 1257
-58 239 -55 68 -55 3129 0 1549 3 2819 7 2822 3 4 1655 7 3670 7 l3663 0 0
-2787z m-6082 -4242 c66 -38 341 -178 434 -220 452 -204 938 -339 1439 -398
214 -25 761 -25 964 0 301 38 454 66 710 132 395 102 741 231 1164 437 101 49
185 87 187 85 4 -4 -127 -445 -188 -628 l-43 -132 -65 -29 c-149 -68 -479
-195 -670 -258 -939 -311 -1734 -351 -2630 -134 -348 85 -802 242 -1131 392
l-65 30 -22 93 c-12 52 -42 182 -67 289 -25 107 -57 234 -70 282 -14 48 -25
89 -25 92 0 11 11 6 78 -33z m407 -880 c152 -67 490 -182 715 -245 518 -144
1029 -205 1482 -177 440 26 809 97 1268 242 153 49 421 146 507 185 18 8 62
26 99 40 36 13 84 34 106 45 38 19 71 18 37 -1 -9 -5 -48 -34 -87 -64 -39 -30
-133 -96 -209 -146 -76 -51 -149 -100 -163 -110 -143 -98 -499 -289 -782 -418
-248 -114 -663 -260 -931 -327 l-148 -38 -112 32 c-301 87 -631 218 -947 377
-162 82 -423 228 -527 296 -37 25 -95 62 -128 84 -136 88 -443 313 -444 326
-1 5 167 -59 264 -101z"/>
<path d="M3249 9377 c-128 -29 -184 -122 -149 -249 14 -51 62 -89 193 -153 61
-31 120 -65 130 -76 22 -27 23 -102 1 -123 -8 -9 -29 -16 -45 -16 -32 0 -37
11 -41 95 l-3 50 -117 3 -118 3 0 -48 c0 -151 87 -214 294 -215 108 0 174 16
233 55 46 31 56 63 51 162 -4 81 -6 87 -39 121 -20 21 -84 60 -157 97 -128 63
-152 83 -152 127 0 40 21 62 55 58 29 -3 30 -6 33 -55 l3 -53 120 0 119 0 0
53 c0 113 -72 162 -250 171 -68 4 -125 1 -161 -7z"/>
<path d="M4010 9015 l0 -355 225 0 225 0 0 70 0 70 -95 0 -95 0 0 80 0 80 80
0 80 0 0 65 0 65 -80 0 -80 0 0 75 0 75 85 0 85 0 0 65 0 65 -215 0 -215 0 0
-355z"/>
<path d="M4780 9016 l0 -356 125 0 124 0 3 143 3 142 50 3 c89 4 178 23 207
43 38 27 51 84 45 193 -5 101 -20 129 -83 161 -35 18 -63 20 -256 23 l-218 4
0 -356z m333 227 c12 -7 8 -148 -5 -161 -16 -16 -65 -15 -70 1 -2 6 -3 41 -1
77 1 36 2 73 3 83 0 16 5 17 33 12 17 -4 35 -9 40 -12z"/>
<path d="M3742 8733 l3 -68 93 -3 92 -3 0 71 0 70 -95 0 -96 0 3 -67z"/>
<path d="M4510 8730 l0 -71 93 3 92 3 3 68 3 67 -96 0 -95 0 0 -70z"/>
<path d="M5230 8730 l0 -70 90 0 90 0 0 70 0 70 -90 0 -90 0 0 -70z"/>
<path d="M1667 8521 c-32 -11 -67 -29 -78 -42 -41 -48 -49 -152 -15 -218 15
-27 40 -46 151 -106 110 -61 112 -62 119 -110 10 -61 -6 -87 -47 -83 l-32 3
-3 68 -3 67 -99 0 -100 0 0 -55 c0 -61 17 -111 46 -136 66 -56 252 -72 347
-30 79 34 97 62 97 148 0 126 -21 152 -187 239 -83 44 -99 56 -107 83 -13 47
6 83 42 79 24 -3 28 -8 32 -48 l5 -45 98 -3 97 -3 0 50 c0 72 -15 97 -77 127
-73 36 -202 43 -286 15z"/>
<path d="M2280 8526 c-67 -17 -115 -51 -136 -94 -17 -32 -19 -62 -19 -227 0
-249 11 -282 111 -327 39 -17 69 -22 144 -22 86 0 101 2 154 29 84 42 100 68
105 166 l3 79 -106 0 -106 0 0 -66 c0 -76 -12 -104 -43 -104 -45 0 -47 12 -47
231 0 114 3 214 6 223 4 10 18 16 39 16 40 0 45 -13 45 -117 l0 -73 106 0 106
0 -4 93 c-3 72 -8 98 -23 118 -56 74 -212 109 -335 75z"/>
<path d="M3247 8529 c-88 -21 -123 -53 -137 -129 -21 -109 23 -172 174 -250
49 -25 94 -54 102 -65 17 -24 18 -97 2 -113 -18 -18 -56 -14 -68 7 -5 11 -10
43 -10 71 l0 51 -97 -3 -98 -3 1 -50 c0 -27 3 -62 7 -77 21 -81 163 -132 304
-109 92 15 134 38 161 91 25 50 27 76 11 149 -14 66 -48 99 -170 161 -53 27
-101 56 -108 64 -7 8 -11 34 -9 58 3 42 4 43 38 43 35 0 35 0 38 -47 l3 -48
101 0 101 0 -7 56 c-3 31 -11 64 -16 74 -32 60 -203 97 -323 69z"/>
<path d="M4268 8521 c-129 -51 -141 -81 -136 -342 3 -160 6 -200 21 -226 35
-66 111 -97 237 -97 89 0 128 10 191 51 46 30 60 61 66 152 l6 73 -109 -4
-109 -4 -5 -80 -5 -79 -35 0 -35 0 0 230 0 230 35 0 35 0 5 -90 5 -90 109 -3
109 -3 -5 84 c-8 130 -41 172 -154 202 -77 20 -168 18 -226 -4z"/>
<path d="M5273 8526 c-61 -20 -111 -54 -131 -89 -14 -27 -17 -63 -17 -243 l0
-210 27 -41 c56 -85 202 -116 286 -61 40 27 42 27 52 8 9 -17 21 -20 75 -20
l65 0 0 175 0 176 -122 -3 -123 -3 -3 -47 c-3 -42 -1 -47 20 -50 22 -3 23 -6
20 -73 -2 -38 -7 -74 -12 -78 -4 -5 -20 -7 -36 -5 l-29 3 0 230 0 230 31 3
c36 4 44 -12 44 -90 l0 -48 105 0 105 0 0 55 c0 66 -18 105 -64 140 -66 50
-202 69 -293 41z"/>
<path d="M1120 8200 l0 -330 190 0 190 0 0 60 0 59 -82 3 -83 3 0 75 0 75 68
3 68 3 -3 57 -3 57 -67 3 -68 3 0 64 0 65 75 0 76 0 -3 63 -3 62 -177 3 -178
2 0 -330z"/>
<path d="M3693 8523 c-10 -3 -13 -79 -13 -329 l0 -324 191 2 191 3 1 55 1 55
-79 5 -80 5 0 75 0 75 68 3 67 3 0 54 0 54 -52 6 c-29 4 -60 5 -68 3 -12 -2
-16 11 -18 65 l-3 67 76 0 76 0 -3 63 -3 62 -170 2 c-93 1 -176 -1 -182 -4z"/>
<path d="M5738 8524 c-5 -4 -8 -153 -8 -331 l0 -323 105 0 104 0 3 148 3 147
30 -3 c16 -2 33 -9 37 -15 4 -7 8 -72 8 -144 l0 -133 100 0 100 0 0 131 0 131
-34 34 c-19 19 -41 34 -50 34 -9 0 -16 5 -16 10 0 6 9 10 19 10 11 0 32 11 47
23 40 34 46 126 14 193 -35 71 -67 81 -280 89 -96 4 -178 4 -182 -1z m262
-124 c14 -14 20 -33 20 -64 0 -45 -9 -59 -47 -70 -20 -7 -22 -4 -25 69 -2 42
-1 79 1 81 10 10 32 3 51 -16z"/>
<path d="M6376 8518 c-6 -17 -9 -39 -62 -348 -24 -146 -47 -273 -50 -282 -5
-16 5 -18 110 -18 l116 0 0 29 c0 16 3 43 6 60 6 30 9 32 48 29 39 -3 41 -5
44 -38 6 -84 0 -80 120 -80 l108 0 -12 68 c-7 37 -22 117 -34 177 -30 157 -36
189 -55 295 -10 52 -22 101 -27 108 -8 8 -52 12 -160 12 -110 0 -150 -3 -152
-12z m184 -268 c6 -58 14 -115 17 -127 5 -21 2 -23 -36 -23 -27 0 -41 4 -41
13 0 21 30 221 35 236 9 24 13 8 25 -99z"/>
<path d="M6866 8508 c-8 -30 -8 -601 0 -622 5 -14 31 -16 180 -16 l174 0 0 60
0 59 -67 3 -68 3 -5 265 -5 265 -101 3 c-98 3 -102 2 -108 -20z"/>
<path d="M2711 7985 c-4 -5 -7 -32 -7 -60 l1 -50 78 -3 77 -3 0 63 0 63 -71 0
c-39 0 -74 -4 -78 -10z"/>
<path d="M4718 7994 c-5 -4 -8 -34 -8 -66 l0 -58 80 0 80 0 0 60 c0 59 0 60
-29 60 -15 0 -48 3 -72 6 -24 3 -47 2 -51 -2z"/>
<path d="M7313 7993 l-33 -4 0 -60 0 -59 80 0 81 0 -3 63 -3 62 -45 1 c-25 1
-60 -1 -77 -3z"/>
<path d="M1133 6273 l3 -1498 22 -100 c24 -104 28 -117 63 -225 52 -158 193
-405 313 -545 320 -377 807 -673 1383 -842 35 -10 63 -22 63 -26 0 -4 -7 -24
-15 -44 -8 -20 -14 -37 -13 -38 4 -4 262 -62 333 -75 379 -71 751 -99 1100
-82 357 18 533 41 858 115 112 25 136 33 133 46 -19 64 -19 66 21 78 188 54
312 97 478 165 109 45 325 157 445 231 64 40 202 140 228 164 8 8 30 25 50 40
65 48 256 245 323 333 61 82 189 285 189 302 0 4 11 31 24 60 59 130 89 229
116 387 19 110 20 162 20 1583 l0 1469 -92 -72 c-51 -39 -144 -109 -205 -156
l-113 -85 -127 68 c-71 37 -163 87 -207 110 -43 24 -82 44 -87 44 -5 0 -10
-593 -12 -1317 -3 -1443 0 -1348 -63 -1523 -79 -222 -227 -421 -441 -593 -56
-46 -200 -147 -208 -147 -1 0 -40 -22 -86 -48 -209 -120 -576 -244 -829 -279
l-55 -8 -3 -82 c-3 -98 20 -88 -242 -104 -181 -12 -687 -7 -793 7 l-49 7 4 86
3 85 -80 12 c-230 34 -525 129 -745 241 -399 203 -672 481 -794 806 -75 200
-70 93 -73 1550 -3 1017 -6 1307 -16 1307 -7 0 -23 -9 -37 -20 -14 -11 -28
-20 -31 -20 -3 0 -81 -40 -173 -90 -92 -49 -171 -90 -175 -90 -4 0 -16 8 -27
18 -10 10 -35 28 -54 42 -19 13 -37 27 -40 30 -6 6 -58 46 -150 116 -36 27
-74 57 -85 67 -11 10 -28 23 -38 28 -17 10 -17 -55 -14 -1488z m81 1405 c24
-18 107 -82 185 -141 l141 -108 118 62 c64 34 152 82 196 106 43 23 82 43 87
43 5 0 9 -543 9 -1261 0 -852 4 -1283 11 -1332 81 -539 555 -991 1270 -1213
87 -26 242 -63 388 -91 23 -4 24 -6 18 -70 -4 -36 -9 -68 -12 -71 -8 -9 -62
-4 -233 19 -84 12 -154 19 -156 17 -1 -1 -15 -34 -31 -73 -16 -38 -38 -92 -50
-120 -12 -27 -53 -123 -90 -212 -37 -90 -72 -163 -77 -163 -14 0 -174 48 -233
70 -369 137 -634 279 -885 473 -91 70 -305 287 -372 377 -221 297 -330 599
-339 940 -5 179 1 2780 6 2780 3 0 25 -15 49 -32z m6036 -1350 c-1 -761 -5
-1428 -10 -1483 -35 -391 -193 -719 -505 -1051 -88 -94 -288 -251 -442 -347
-92 -58 -351 -194 -408 -215 -16 -6 -84 -32 -150 -57 -113 -44 -385 -129 -391
-122 -3 3 -36 80 -116 272 -27 66 -68 164 -91 217 -22 54 -45 98 -51 98 -6 0
-78 -9 -160 -20 -83 -11 -151 -19 -151 -17 -1 1 -5 32 -8 68 l-6 67 67 12
c434 79 824 246 1117 481 145 116 315 319 387 464 59 117 102 267 118 410 6
55 10 563 10 1313 0 672 4 1222 8 1222 4 0 12 -4 18 -9 5 -5 52 -31 104 -58
52 -28 134 -71 182 -97 54 -29 92 -44 100 -40 13 8 163 122 292 221 37 29 72
53 77 53 5 0 9 -573 9 -1382z m-3821 -2738 c508 -66 1042 -61 1608 17 41 5 42
5 61 -38 11 -24 32 -75 47 -114 15 -38 38 -92 50 -120 46 -101 145 -347 145
-361 0 -15 -24 -22 -199 -59 -606 -126 -1260 -126 -1906 1 -117 23 -234 51
-244 60 -4 4 50 135 219 534 15 36 30 73 33 83 8 21 0 21 186 -3z"/>
<path d="M1410 7362 c-76 -6 -110 -54 -110 -154 0 -105 39 -148 137 -148 70 0
102 21 157 104 52 78 79 96 116 76 27 -14 25 -40 -2 -42 -13 0 -30 -1 -38 -2
-12 -1 -15 -15 -15 -61 0 -59 1 -60 29 -63 76 -9 121 50 119 156 -1 103 -40
142 -139 142 -55 0 -82 -20 -140 -102 -30 -43 -62 -78 -72 -79 -36 -2 -67 3
-74 14 -13 22 5 36 50 39 l47 3 0 59 c0 65 1 64 -65 58z"/>
<path d="M1374 6883 c-43 -21 -64 -70 -64 -150 0 -63 2 -67 39 -104 l39 -39
211 0 211 0 0 65 0 65 -210 0 c-184 0 -211 2 -217 16 -3 9 0 20 8 25 8 5 105
9 217 9 l202 0 0 65 0 65 -202 -1 c-163 0 -209 -3 -234 -16z"/>
<path d="M1320 6335 l0 -64 98 -3 97 -3 3 -52 c2 -39 9 -57 29 -77 23 -23 33
-26 102 -26 140 0 152 13 159 176 l5 114 -247 0 -246 0 0 -65z m404 -74 c4 -5
3 -17 0 -26 -5 -13 -18 -15 -63 -13 -49 3 -56 6 -59 26 -3 21 0 22 57 22 33 0
62 -4 65 -9z"/>
<path d="M1318 5785 c-1 -52 -2 -105 -2 -117 -1 -20 5 -23 46 -26 l47 -3 3 53
3 53 52 3 c45 3 52 0 58 -18 4 -12 4 -32 1 -46 -6 -23 -4 -24 38 -24 l45 0 3
43 c3 41 4 42 43 45 47 4 65 -14 65 -65 0 -34 0 -34 43 -31 l42 3 0 110 0 110
-242 3 -243 2 -2 -95z"/>
<path d="M1312 5333 l3 -68 108 0 c104 0 107 -1 107 -22 0 -25 2 -25 -120 -29
-41 -1 -81 -2 -88 -3 -9 -1 -12 -17 -10 -58 l3 -58 87 -3 c96 -3 141 11 153
49 7 20 8 19 26 -9 20 -35 66 -49 121 -37 82 18 98 51 98 200 l0 105 -245 0
-246 0 3 -67z m406 -90 c-2 -14 -15 -19 -56 -21 -47 -3 -52 -1 -52 17 0 19 6
21 56 21 47 0 55 -3 52 -17z"/>
<path d="M1300 4909 c0 -76 7 -88 54 -91 38 -3 41 -5 41 -33 0 -27 -4 -31 -35
-35 -35 -5 -35 -5 -38 -60 -1 -30 1 -60 5 -66 7 -11 151 22 413 94 l65 17 -3
70 c-2 39 -5 82 -8 96 l-5 27 -127 6 c-70 4 -180 9 -244 12 l-118 7 0 -44z
m377 -95 c-7 -7 -144 -34 -174 -34 -16 0 -23 6 -23 20 0 19 7 20 102 20 56 0
99 -3 95 -6z"/>
<path d="M1845 4559 c-27 -11 -111 -42 -185 -71 -74 -28 -154 -59 -177 -69
l-43 -18 22 -58 c12 -32 22 -59 23 -60 0 -1 48 16 105 37 57 22 106 40 108 40
2 0 2 -10 0 -22 -3 -24 -16 -32 -118 -75 -36 -14 -67 -28 -69 -30 -2 -2 4 -27
14 -57 l19 -54 78 29 c100 36 128 55 135 90 l5 28 27 -20 c26 -19 29 -19 77
-3 62 21 104 63 104 106 0 29 -55 204 -69 220 -3 3 -28 -2 -56 -13z m31 -164
c-7 -20 -73 -48 -93 -41 -27 11 -8 38 37 56 47 18 67 13 56 -15z"/>
<path d="M2010 4196 c-71 -38 -83 -62 -90 -170 -5 -98 -15 -121 -58 -137 -16
-6 -29 -6 -38 2 -23 19 -16 36 26 60 l39 24 -30 53 -31 52 -31 -22 c-70 -49
-84 -78 -67 -147 14 -58 61 -118 107 -138 30 -12 38 -12 76 6 76 34 107 69
117 132 4 31 6 74 3 95 -6 48 25 94 63 94 33 0 32 -32 -1 -57 l-26 -18 31 -49
31 -48 27 18 c42 27 62 55 61 83 -2 81 -86 191 -145 191 -11 0 -39 -11 -64
-24z"/>
<path d="M2358 3838 c-49 -51 -126 -130 -171 -175 l-81 -82 79 -81 79 -80 33
32 33 32 -30 31 c-16 17 -30 35 -30 40 0 14 59 75 72 75 7 0 24 -11 38 -25
l26 -25 28 29 c24 26 26 31 14 50 -7 11 -16 21 -20 21 -19 0 -5 39 22 65 l30
29 28 -27 c15 -15 33 -27 38 -27 13 0 54 43 54 56 0 11 -134 154 -144 154 -4
0 -48 -42 -98 -92z"/>
<path d="M6703 7029 c-52 -15 -86 -69 -87 -137 -1 -73 17 -116 61 -143 32 -20
49 -22 193 -22 135 0 161 2 188 18 86 51 89 217 5 272 -22 15 -53 18 -178 20
-82 1 -164 -2 -182 -8z m334 -132 c7 -4 10 -14 6 -23 -4 -12 -32 -14 -177 -12
-150 3 -171 5 -174 20 -2 9 5 19 15 22 27 7 316 1 330 -7z"/>
<path d="M6713 6223 c-12 -2 -35 -17 -51 -33 -24 -23 -32 -41 -37 -85 -12 -92
15 -159 77 -191 34 -17 306 -20 352 -3 52 19 71 54 74 139 5 116 -32 162 -140
175 l-58 7 0 -71 0 -71 54 0 c65 0 93 -22 61 -47 -16 -12 -41 -14 -130 -9 -60
3 -134 6 -162 6 -50 0 -53 2 -53 25 0 24 2 25 70 25 l70 0 0 70 0 70 -52 -1
c-29 -1 -63 -4 -75 -6z"/>
<path d="M6634 5317 c-3 -8 -4 -41 -2 -73 l3 -59 245 0 245 0 0 70 0 70 -243
3 c-199 2 -243 0 -248 -11z"/>
<path d="M6586 4766 c-9 -30 -16 -58 -16 -63 0 -4 22 -23 48 -40 l47 -33 -61
0 -61 0 -18 -57 c-10 -32 -20 -63 -22 -70 -3 -7 26 -13 94 -18 107 -7 113 -9
241 -92 55 -35 84 -49 87 -40 3 6 14 38 25 70 l19 58 -46 27 c-25 15 -55 35
-67 44 -20 17 -18 17 59 18 l81 0 21 64 20 63 -135 8 -135 7 -77 54 c-43 30
-80 54 -83 54 -3 0 -13 -24 -21 -54z"/>
<path d="M6164 4138 c-32 -40 -64 -79 -72 -87 -19 -19 -45 -61 -41 -64 15 -10
254 -220 295 -259 l50 -48 80 97 c117 144 111 131 81 159 -14 13 -31 24 -36
24 -6 0 -25 -18 -42 -40 -18 -22 -38 -40 -44 -40 -6 0 -27 14 -45 30 -25 23
-32 34 -25 44 6 8 20 27 32 43 l22 30 -29 28 -29 27 -31 -36 c-18 -20 -37 -36
-43 -36 -6 0 -23 12 -39 27 l-27 26 33 46 c25 34 31 49 22 56 -6 6 -21 18 -33
28 -20 17 -21 16 -79 -55z"/>
<path d="M5585 3813 c-44 -20 -81 -38 -83 -38 -1 -1 7 -37 18 -81 30 -120 26
-127 -27 -52 -27 37 -52 74 -58 82 -9 14 -21 10 -97 -26 -49 -24 -88 -47 -88
-53 0 -9 23 -66 85 -210 9 -22 30 -68 46 -103 16 -35 29 -68 29 -73 0 -14 15
-11 75 15 64 29 67 4 -25 213 -13 29 -21 55 -18 58 4 4 61 -75 149 -207 3 -5
25 -1 49 8 49 20 49 14 6 194 -25 105 -27 137 -5 84 35 -85 93 -210 100 -218
8 -9 105 29 115 45 7 12 -164 394 -178 397 -7 1 -49 -14 -93 -35z"/>
<path d="M3347 3334 c-4 -87 -7 -203 -7 -256 l0 -98 90 0 90 0 0 98 0 98 82
11 c70 10 86 15 106 39 22 25 24 34 20 115 -5 127 -22 138 -234 146 l-141 6
-6 -159z m235 41 c8 -17 8 -37 2 -63 -7 -30 -14 -38 -36 -40 l-28 -3 0 65 c0
64 1 66 25 66 17 0 29 -8 37 -25z"/>
<path d="M4602 3460 c-40 -5 -76 -11 -79 -14 -9 -8 27 -479 37 -489 4 -5 44
-5 89 -1 l82 7 -6 56 c-10 107 -10 174 0 178 6 2 19 -2 28 -9 13 -10 20 -38
28 -113 6 -55 12 -101 13 -103 2 -1 38 1 80 5 l78 6 -7 91 c-9 111 -20 138
-65 153 -31 10 -32 12 -15 19 42 15 55 36 54 83 -1 69 -11 94 -48 118 -29 20
-46 23 -115 22 -45 -1 -114 -5 -154 -9z m147 -84 c7 -8 11 -34 9 -58 -3 -38
-6 -43 -30 -46 -25 -3 -26 -1 -30 53 -1 31 -1 59 1 61 9 9 39 3 50 -10z"/>
<path d="M4012 3419 c-71 -36 -77 -51 -80 -230 -4 -179 2 -201 65 -241 33 -20
51 -23 133 -23 73 0 104 4 133 19 66 33 72 50 75 233 4 155 3 164 -19 194 -34
48 -90 69 -184 69 -62 0 -90 -5 -123 -21z m156 -199 c2 -74 0 -154 -3 -177 -5
-37 -9 -43 -31 -43 -14 0 -27 7 -31 15 -3 9 -2 90 2 181 l7 165 27 -3 26 -3 3
-135z"/>
<path d="M3237 7642 c-15 -16 -17 -48 -17 -245 l0 -226 61 -93 c34 -51 75
-113 92 -137 l30 -43 -22 -212 c-12 -116 -26 -249 -31 -296 -10 -87 -24 -224
-60 -570 -25 -242 -44 -423 -69 -655 -11 -99 -23 -213 -26 -252 -6 -64 -14
-85 -68 -180 -34 -60 -68 -119 -74 -133 -11 -20 -140 -396 -160 -463 -5 -18 1
-18 123 -12 71 4 135 12 142 17 8 7 12 45 12 124 0 111 0 114 -24 120 -13 3
-36 4 -52 2 -26 -3 -29 -8 -54 -108 -35 -144 -33 -140 -75 -140 -21 0 -35 5
-35 12 0 7 30 103 66 213 46 139 81 227 116 290 28 50 62 109 75 133 19 33 27
72 38 175 20 183 62 584 86 812 10 105 28 276 40 380 11 105 24 233 29 285 5
52 16 156 24 230 27 246 33 217 -72 377 l-92 139 0 208 c0 124 4 215 10 227
10 18 23 19 174 19 124 0 166 -3 175 -13 7 -9 11 -85 11 -220 l1 -207 85 0 84
0 0 204 c0 173 2 207 16 220 13 13 43 16 172 16 86 0 163 -4 170 -9 11 -6 14
-55 15 -217 l2 -209 83 -3 82 -3 0 209 c0 148 3 211 12 220 8 8 61 12 173 12
112 0 165 -4 173 -12 9 -9 12 -72 12 -220 l0 -208 85 1 85 1 0 200 c0 118 4
207 10 219 10 18 23 19 173 19 114 0 167 -4 175 -12 17 -17 17 -440 0 -471 -6
-12 -44 -72 -85 -134 -83 -126 -83 -126 -63 -320 10 -107 37 -414 75 -878 52
-636 75 -902 81 -955 5 -43 21 -81 76 -174 67 -117 69 -123 94 -260 14 -78 32
-173 40 -213 8 -40 14 -75 14 -78 0 -9 -88 -6 -94 4 -3 5 -15 55 -26 112 -26
131 -28 138 -40 119 -15 -23 -12 -226 3 -237 17 -14 141 -33 167 -26 13 4 19
11 16 22 -5 15 -30 157 -62 346 -14 78 -24 104 -76 195 -34 58 -66 116 -73
130 -7 14 -24 168 -39 345 -28 346 -64 772 -96 1145 -11 129 -27 315 -36 414
l-15 178 33 52 c18 28 58 91 90 140 l58 88 0 217 c0 154 -4 223 -13 241 l-13
25 -179 2 c-144 2 -184 0 -199 -12 -17 -13 -19 -32 -22 -212 l-4 -198 -55 -3
-55 -3 0 186 c0 181 -5 218 -34 237 -6 4 -88 8 -182 8 -153 0 -173 -2 -187
-18 -15 -16 -17 -46 -17 -215 l0 -197 -60 0 -60 0 0 195 c0 254 17 235 -213
235 -156 0 -176 -2 -190 -18 -15 -16 -17 -46 -17 -214 0 -153 -3 -197 -13
-201 -7 -3 -34 -3 -60 0 l-47 6 0 193 c0 253 17 234 -213 234 -156 0 -176 -2
-190 -18z"/>
<path d="M3940 7572 c-44 -2 -78 -8 -82 -15 -4 -7 -8 -87 -8 -179 0 -202 -3
-197 129 -193 68 2 87 5 98 20 18 26 19 324 1 347 -16 20 -44 24 -138 20z"/>
<path d="M3322 7558 c-8 -8 -12 -64 -12 -184 l0 -172 28 -9 c15 -6 63 -9 106
-8 64 2 82 6 93 21 16 22 19 315 3 345 -10 17 -22 19 -108 19 -63 0 -102 -4
-110 -12z"/>
<path d="M4396 7555 c-3 -9 -6 -93 -6 -186 l0 -169 24 -10 c31 -11 184 -6 197
7 6 6 8 83 7 189 l-3 179 -106 3 c-91 2 -108 0 -113 -13z"/>
<path d="M4937 7564 c-11 -11 -8 -362 3 -369 16 -10 172 -14 197 -4 l23 9 -2
182 -3 183 -106 3 c-58 1 -108 -1 -112 -4z"/>
<path d="M3393 7074 l22 -47 3 32 c4 34 -12 61 -34 61 -10 0 -8 -11 9 -46z"/>
<path d="M3477 7099 c-16 -22 -14 -130 3 -182 5 -15 7 -34 4 -42 -5 -13 18
-15 158 -15 114 0 168 4 176 12 16 16 16 220 0 236 -8 8 -60 12 -169 12 -148
0 -159 -1 -172 -21z"/>
<path d="M3892 7112 c-9 -7 -12 -39 -10 -128 l3 -119 164 -3 c112 -2 168 1
177 9 18 15 20 219 2 237 -14 14 -315 17 -336 4z"/>
<path d="M4301 7111 c-18 -11 -27 -184 -12 -223 l11 -28 163 0 c113 0 167 4
175 12 16 16 16 220 0 236 -14 14 -315 17 -337 3z"/>
<path d="M4710 7110 c-11 -7 -14 -31 -11 -122 1 -73 7 -115 14 -120 7 -4 69
-8 140 -8 125 0 127 0 127 23 0 12 18 49 40 82 41 62 52 119 28 143 -15 15
-315 17 -338 2z"/>
<path d="M3480 6803 c-1 -10 -7 -67 -14 -128 -7 -60 -12 -112 -10 -114 6 -7
103 -3 114 4 15 9 13 228 -2 243 -7 7 -29 12 -50 12 -29 0 -38 -4 -38 -17z"/>
<path d="M3642 6808 c-15 -15 -16 -216 -2 -238 8 -12 37 -15 169 -14 88 1 164
5 170 9 16 9 15 227 -1 243 -8 8 -60 12 -168 12 -108 0 -160 -4 -168 -12z"/>
<path d="M4052 6808 c-14 -14 -17 -215 -3 -236 6 -11 46 -14 170 -13 88 0 166
3 171 6 15 9 13 228 -2 243 -8 8 -60 12 -168 12 -108 0 -160 -4 -168 -12z"/>
<path d="M4462 6808 c-14 -14 -16 -215 -2 -238 7 -12 38 -15 157 -15 81 0 158
3 171 7 21 7 22 12 22 121 0 75 -4 117 -12 125 -8 8 -60 12 -168 12 -108 0
-160 -4 -168 -12z"/>
<path d="M4872 6808 c-13 -13 -17 -215 -4 -235 7 -12 53 -18 105 -15 l29 2 -6
65 c-3 36 -9 94 -12 130 l-6 65 -47 0 c-26 0 -52 -5 -59 -12z"/>
<path d="M3635 6512 c-82 -1 -153 -6 -158 -11 -13 -13 -10 -220 4 -237 9 -11
44 -14 161 -14 84 0 158 5 169 10 17 10 19 22 19 124 0 108 -1 113 -22 122
-13 5 -90 8 -173 6z"/>
<path d="M3887 6503 c-9 -8 -9 -216 -1 -237 5 -14 30 -16 168 -16 113 0 166 4
174 12 16 16 16 220 0 236 -13 13 -329 18 -341 5z"/>
<path d="M4292 6493 c-13 -33 -8 -209 7 -226 11 -15 37 -17 170 -17 109 0 161
4 169 12 13 13 17 202 6 232 -5 14 -30 16 -175 16 -152 0 -170 -2 -177 -17z"/>
<path d="M4706 6501 c-3 -4 -7 -59 -8 -120 -2 -90 0 -114 12 -121 8 -5 82 -10
164 -10 l149 0 -7 88 c-4 48 -9 106 -12 130 l-6 42 -144 0 c-78 0 -145 -4
-148 -9z"/>
<path d="M3416 6179 c-3 -18 -9 -76 -13 -130 l-6 -99 79 0 c49 0 85 5 92 12
13 13 17 202 6 232 -5 13 -22 16 -79 16 l-72 0 -7 -31z"/>
<path d="M3642 6198 c-7 -7 -12 -42 -12 -87 1 -62 3 -73 13 -61 31 41 60 50
150 50 66 0 96 -4 118 -17 27 -16 59 -75 59 -109 0 -8 5 -12 10 -9 11 7 14
203 4 229 -5 14 -30 16 -168 16 -113 0 -166 -4 -174 -12z"/>
<path d="M4046 6194 c-11 -30 -7 -219 6 -232 8 -8 60 -12 168 -12 108 0 160 4
168 12 8 8 12 50 12 124 0 93 -3 113 -16 118 -9 3 -87 6 -174 6 -135 0 -159
-2 -164 -16z"/>
<path d="M4461 6196 c-8 -9 -11 -51 -9 -122 3 -105 3 -108 16 -67 7 23 26 53
43 67 28 24 38 26 126 26 101 0 131 -12 160 -63 10 -19 12 -10 13 60 0 45 -3
88 -6 97 -5 14 -30 16 -169 16 -127 0 -165 -3 -174 -14z"/>
<path d="M4866 6194 c-11 -30 -7 -219 6 -232 7 -7 43 -12 91 -12 l80 0 -8 123
c-4 67 -9 125 -12 130 -2 4 -37 7 -78 7 -57 0 -74 -3 -79 -16z"/>
<path d="M3480 5895 c-16 -19 -15 -222 1 -241 9 -11 45 -14 161 -14 84 0 158
5 169 10 14 8 19 21 19 50 l0 40 -105 0 -105 0 0 85 0 85 -64 0 c-43 0 -67 -5
-76 -15z"/>
<path d="M3970 5826 l0 -85 -47 -3 -48 -3 3 -35 c5 -56 19 -60 182 -60 185 0
180 -4 180 141 0 68 -4 109 -12 117 -8 8 -53 12 -135 12 l-123 0 0 -84z"/>
<path d="M4299 5893 c-10 -11 -14 -45 -13 -121 1 -140 -6 -135 193 -128 167 6
171 8 171 63 l0 32 -92 3 -93 3 -3 83 -3 82 -73 0 c-56 0 -77 -4 -87 -17z"/>
<path d="M4810 5825 l0 -85 -55 0 -55 0 0 -40 c0 -57 15 -62 191 -58 119 2
152 6 160 18 13 19 2 219 -13 237 -7 9 -42 13 -119 13 l-109 0 0 -85z"/>
<path d="M3386 5878 c-3 -13 -8 -61 -11 -108 -4 -47 -9 -95 -12 -107 -7 -31
29 -31 46 0 16 30 11 229 -6 234 -7 3 -14 -6 -17 -19z"/>
<path d="M3366 5602 c-10 -16 -26 -143 -26 -204 l0 -58 108 0 c71 0 112 4 120
12 8 8 12 50 12 125 0 97 -2 114 -17 121 -24 13 -190 15 -197 4z"/>
<path d="M3648 5599 c-16 -9 -18 -26 -18 -124 0 -134 1 -135 104 -135 l66 0 0
54 c0 66 -13 79 -89 86 l-56 5 0 35 c0 34 1 34 55 45 52 11 100 30 100 40 0
10 -145 4 -162 -6z"/>
<path d="M4070 5603 c-26 -10 -30 -26 -30 -135 0 -96 2 -108 19 -118 11 -5 69
-10 130 -10 l111 0 0 50 c0 79 18 145 50 178 16 17 26 33 23 36 -8 8 -283 6
-303 -1z"/>
<path d="M4742 5583 c28 -31 47 -63 59 -102 5 -19 8 -7 8 41 1 74 -9 88 -65
88 l-28 0 26 -27z"/>
<path d="M4883 5600 c-22 -9 -23 -15 -23 -123 0 -74 4 -117 12 -125 8 -8 48
-12 115 -12 l102 0 -5 83 c-4 45 -9 105 -13 132 l-6 50 -80 2 c-44 1 -90 -2
-102 -7z"/>
<path d="M3940 5471 c0 -105 3 -131 14 -131 30 0 37 27 34 141 -3 110 -4 114
-25 117 -23 3 -23 3 -23 -127z"/>
<path d="M4508 5549 c-32 -12 -38 -26 -45 -111 -8 -92 -1 -98 98 -98 l79 0 0
88 c0 55 -5 94 -12 105 -16 20 -84 30 -120 16z"/>
<path d="M3326 5278 c-3 -13 -8 -61 -11 -108 -4 -47 -9 -95 -12 -107 -5 -22
-2 -23 44 -23 27 0 54 5 61 12 8 8 12 49 12 118 0 118 -5 130 -57 130 -26 0
-34 -5 -37 -22z"/>
<path d="M3481 5287 c-12 -15 -17 -219 -6 -236 4 -7 65 -11 166 -11 l159 0 0
130 0 130 -154 0 c-116 0 -156 -3 -165 -13z"/>
<path d="M3940 5170 l0 -130 138 0 c94 0 142 4 150 12 16 16 16 220 0 236 -8
8 -56 12 -150 12 l-138 0 0 -130z"/>
<path d="M4460 5170 l0 -130 90 0 91 0 -3 128 -3 127 -87 3 -88 3 0 -131z"/>
<path d="M4810 5170 l0 -130 113 0 c75 0 117 4 125 12 16 16 16 220 0 236 -8
8 -50 12 -125 12 l-113 0 0 -130z"/>
<path d="M4288 5188 c-2 -51 0 -100 4 -108 4 -8 8 33 8 93 0 59 -2 107 -4 107
-3 0 -6 -42 -8 -92z"/>
<path d="M3300 4993 c-6 -94 -21 -158 -46 -194 -18 -27 -24 -43 -17 -50 11
-11 315 -15 333 -4 15 9 13 228 -2 243 -13 13 -268 18 -268 5z"/>
<path d="M3642 4988 c-8 -8 -12 -50 -12 -124 l0 -112 28 -9 c15 -4 95 -6 177
-3 l150 5 3 119 c2 89 -1 121 -10 128 -34 21 -38 10 -38 -112 l0 -120 -70 0
-70 0 0 120 0 120 -73 0 c-43 0 -78 -5 -85 -12z"/>
<path d="M4052 4988 c-19 -19 -16 -222 4 -239 11 -9 55 -12 171 -11 85 1 159
4 164 8 5 3 -9 26 -31 51 -43 49 -49 63 -59 146 l-6 52 -115 3 c-81 2 -119 -1
-128 -10z"/>
<path d="M4465 4979 c-11 -32 4 -127 23 -145 12 -12 29 -15 74 -12 31 2 61 8
65 12 4 4 10 43 12 87 l3 79 -85 0 c-78 0 -86 -2 -92 -21z"/>
<path d="M4872 4988 c-17 -17 -16 -222 1 -236 9 -8 227 -18 294 -13 6 1 -1 24
-18 58 -24 47 -29 69 -29 130 l0 73 -118 0 c-78 0 -122 -4 -130 -12z"/>
<path d="M4802 4889 c-3 -34 -54 -105 -95 -129 l-32 -20 63 0 c43 0 64 4 68
13 3 8 3 47 1 88 -1 41 -4 62 -5 48z"/>
<path d="M3485 4687 c-19 -10 -22 -226 -3 -245 17 -17 319 -17 336 0 14 14 17
215 3 237 -7 11 -42 15 -166 15 -86 1 -162 -2 -170 -7z"/>
<path d="M3920 4691 l-35 -6 -3 -114 c-3 -118 3 -141 39 -141 15 0 19 7 19 38
0 34 8 46 83 120 45 45 89 82 97 82 8 0 38 -21 65 -48 l50 -47 3 44 c5 67 -4
72 -154 75 -71 1 -145 0 -164 -3z"/>
<path d="M4302 4684 c-14 -10 -16 -26 -15 -80 2 -37 7 -72 12 -78 5 -6 11 -29
13 -51 l3 -40 154 -3 c104 -2 158 1 167 9 16 14 20 214 4 239 -8 12 -38 15
-165 16 -109 0 -162 -4 -173 -12z"/>
<path d="M4735 4691 l-30 -6 -3 -119 c-2 -89 1 -121 10 -128 21 -13 322 -10
336 4 18 18 16 222 -2 237 -15 13 -263 23 -311 12z"/>
<path d="M5153 4688 l-33 -9 0 -112 c0 -75 4 -117 12 -125 17 -17 158 -16 158
1 0 69 -64 239 -94 250 -6 2 -26 0 -43 -5z"/>
<path d="M3152 4648 c-25 -38 -45 -94 -66 -190 l-6 -28 158 0 c110 0 162 4
170 12 16 16 16 220 0 236 -8 8 -49 12 -120 12 l-107 0 -29 -42z"/>
<path d="M3226 4374 c-11 -30 -7 -219 6 -232 17 -17 319 -17 336 0 16 16 16
220 0 236 -8 8 -61 12 -174 12 -138 0 -163 -2 -168 -16z"/>
<path d="M3642 4378 c-16 -16 -16 -220 0 -236 17 -17 319 -17 336 0 22 22 14
48 -13 48 l-25 0 0 100 0 100 -143 0 c-98 0 -147 -4 -155 -12z"/>
<path d="M4315 4378 c-3 -7 -6 -52 -7 -101 l-3 -87 -128 -4 c-70 -1 -130 -6
-134 -10 -4 -4 -2 -15 3 -24 10 -15 33 -17 169 -20 107 -2 162 1 171 9 18 15
20 219 2 237 -16 16 -67 15 -73 0z"/>
<path d="M4462 4378 c-16 -16 -16 -220 0 -236 17 -17 319 -17 336 0 13 13 17
202 6 232 -5 14 -30 16 -168 16 -113 0 -166 -4 -174 -12z"/>
<path d="M4866 4374 c-11 -30 -7 -219 6 -232 17 -17 319 -17 336 0 8 8 12 49
12 118 0 69 -4 110 -12 118 -8 8 -61 12 -174 12 -138 0 -163 -2 -168 -16z"/>
<path d="M1520 3753 c0 -5 -19 -28 -41 -53 -23 -25 -53 -58 -68 -75 -89 -101
-183 -209 -231 -264 -30 -35 -63 -73 -73 -85 -19 -21 -18 -22 33 -67 l53 -46
31 36 c17 20 47 54 67 76 20 22 49 55 64 73 52 62 45 37 -41 -146 -24 -51 -44
-98 -44 -104 0 -14 91 -97 107 -98 6 0 13 4 15 9 2 4 31 39 64 77 34 38 113
128 175 199 62 72 128 146 146 165 18 19 33 41 33 48 0 15 -81 92 -97 92 -7 0
-13 -3 -13 -7 0 -5 -16 -26 -36 -48 -20 -22 -59 -66 -87 -97 -28 -32 -53 -56
-55 -53 -3 2 5 25 17 50 11 24 21 47 21 50 0 4 10 27 21 53 12 26 30 66 40 90
l19 43 -48 44 c-44 41 -72 56 -72 38z"/>
<path d="M6928 3624 c-32 -31 -58 -58 -58 -59 0 -2 6 -10 13 -17 7 -7 62 -69
121 -138 60 -69 127 -145 150 -170 23 -25 68 -75 100 -112 l58 -68 47 40 c25
22 72 64 103 92 l58 53 -44 48 -43 49 -34 -31 c-18 -17 -39 -31 -45 -31 -6 0
-69 66 -140 148 -71 81 -145 164 -164 185 -19 21 -39 45 -43 53 -12 21 -17 18
-79 -42z"/>
<path d="M6705 3439 c-185 -139 -171 -125 -156 -151 7 -13 23 -36 36 -52 l24
-30 38 27 c22 15 42 27 45 27 4 0 35 -42 71 -92 83 -120 239 -342 243 -347 3
-3 32 16 116 80 21 16 20 17 -51 120 -40 57 -110 158 -157 224 l-85 120 40 35
41 35 -32 47 c-18 26 -38 48 -43 48 -6 0 -64 -41 -130 -91z"/>
<path d="M1839 3448 c-14 -25 -111 -176 -255 -395 -52 -78 -94 -146 -94 -151
0 -5 43 -37 95 -72 52 -34 100 -69 106 -76 21 -26 46 -15 76 35 l31 49 -37 27
c-20 14 -43 31 -51 35 -13 8 -11 16 10 55 13 25 28 45 32 45 3 0 10 9 13 20 8
26 21 25 61 -5 18 -14 37 -25 42 -25 5 0 17 11 26 25 51 80 51 69 4 101 -24
15 -44 29 -46 30 -6 3 69 114 77 114 4 0 27 -14 51 -31 46 -34 46 -34 83 31
25 43 25 47 9 61 -20 17 -213 149 -218 149 -2 0 -9 -10 -15 -22z"/>
<path d="M2095 3241 c-31 -63 -31 -67 3 -85 58 -32 58 -29 20 -97 -20 -35 -58
-107 -86 -159 -28 -52 -71 -131 -95 -175 -51 -90 -54 -79 33 -135 25 -16 50
-30 57 -30 13 0 30 27 103 165 62 118 113 213 147 273 l24 43 44 -25 c33 -20
45 -23 53 -13 14 17 54 98 50 102 -4 3 -276 158 -305 174 -21 11 -24 8 -48
-38z"/>
<path d="M6400 3241 c-112 -35 -192 -131 -176 -214 13 -70 177 -376 229 -426
70 -69 177 -60 265 23 89 83 86 130 -20 336 -105 200 -137 246 -191 270 -45
21 -67 23 -107 11z m23 -138 c8 -10 44 -72 80 -138 35 -66 78 -146 95 -178 38
-69 42 -110 11 -105 -24 3 -55 54 -170 275 -65 124 -75 163 -44 163 6 0 19 -8
28 -17z"/>
<path d="M6101 3064 c-29 -13 -60 -24 -67 -24 -8 0 -14 -1 -14 -2 0 -2 9 -52
20 -113 27 -148 26 -160 -8 -100 -27 48 -72 124 -91 154 -7 12 -16 12 -53 2
-25 -7 -57 -20 -71 -30 l-25 -16 73 -100 c40 -55 83 -113 96 -129 61 -77 101
-148 135 -240 20 -56 41 -105 45 -110 10 -11 129 32 135 49 3 7 -13 59 -34
116 -36 97 -40 117 -56 299 -9 107 -16 212 -16 233 0 20 -3 37 -7 36 -5 0 -32
-11 -62 -25z"/>
<path d="M2465 3043 c-33 -78 -32 -81 24 -106 28 -12 51 -25 51 -29 0 -3 -33
-48 -73 -100 -185 -237 -237 -316 -237 -359 0 -11 283 -120 290 -112 11 12 40
92 40 108 0 8 -6 15 -12 15 -23 0 -98 35 -98 45 0 6 13 24 28 42 15 17 37 44
48 60 12 15 60 77 106 137 81 103 126 190 115 219 -3 7 -40 27 -83 44 -44 17
-103 41 -131 52 l-53 21 -15 -37z"/>
<path d="M2830 2803 c-165 -369 -212 -480 -214 -496 -1 -14 16 -24 69 -43 38
-13 74 -23 80 -20 6 2 19 27 29 56 18 50 20 52 49 46 17 -3 33 -8 35 -11 3 -3
0 -30 -7 -61 -15 -64 -13 -67 54 -84 22 -6 51 -15 64 -21 13 -5 26 -8 28 -5 4
4 17 84 43 271 9 68 43 293 56 372 l6 40 -113 37 c-63 20 -117 36 -120 36 -4
0 -30 -53 -59 -117z m110 -210 c-30 -157 -25 -146 -58 -138 -15 4 -29 8 -31
10 -2 3 20 61 50 129 29 69 55 124 57 122 2 -3 -6 -58 -18 -123z"/>
<path d="M5578 2880 c-53 -10 -129 -59 -152 -99 -12 -22 -20 -51 -19 -80 1
-49 89 -365 118 -422 38 -74 83 -102 166 -102 117 1 209 83 209 185 0 61 -102
399 -138 455 -31 50 -112 77 -184 63z m41 -137 c29 -74 121 -401 119 -423 -4
-30 -33 -38 -47 -13 -5 11 -26 75 -46 143 -20 69 -48 163 -61 208 -20 65 -22
87 -13 98 18 22 35 17 48 -13z"/>
<path d="M3226 2773 c-3 -15 -12 -68 -21 -118 -8 -49 -30 -182 -49 -295 -20
-113 -36 -212 -36 -220 0 -11 17 -20 58 -28 84 -17 101 -16 107 11 3 12 13 73
23 135 11 62 22 115 25 118 3 3 15 3 28 -1 20 -7 21 -12 16 -59 -9 -70 -26
-184 -33 -211 -5 -21 -1 -23 63 -35 37 -6 75 -14 84 -16 13 -4 19 15 33 103 9
60 35 211 57 336 23 126 39 231 36 234 -9 9 -149 34 -156 28 -3 -3 -15 -57
-26 -118 -19 -109 -21 -112 -47 -115 -34 -4 -34 0 -12 132 9 53 14 102 11 110
-3 7 -27 16 -54 20 -26 4 -60 9 -75 12 -22 4 -27 1 -32 -23z"/>
<path d="M5075 2759 c-17 -5 -49 -24 -72 -43 -64 -56 -69 -93 -38 -279 59
-347 76 -377 225 -377 103 0 186 53 209 134 8 30 0 170 -11 181 -2 2 -21 0
-43 -5 -22 -4 -57 -11 -77 -14 l-38 -7 7 -90 6 -91 -28 4 c-35 4 -36 6 -76
243 -34 206 -34 239 -2 243 28 4 37 -16 53 -115 13 -80 13 -79 83 -64 23 6 54
12 68 15 25 5 26 7 18 54 -19 126 -53 190 -109 209 -41 14 -132 15 -175 2z"/>
<path d="M3705 2705 c-2 -5 -13 -131 -24 -280 -23 -295 -21 -322 27 -368 61
-58 194 -76 266 -34 67 38 74 63 102 372 14 153 23 279 20 282 -7 7 -157 20
-161 13 -2 -3 -13 -121 -25 -261 -27 -330 -25 -319 -57 -319 l-26 0 6 92 c3
50 14 180 23 289 10 109 15 202 11 205 -12 13 -159 21 -162 9z"/>
<path d="M4651 2693 l-44 -4 6 -62 c3 -34 16 -188 28 -342 12 -154 23 -281 24
-283 4 -6 261 21 269 28 4 5 5 35 1 68 l-7 60 -52 -5 -53 -5 -11 128 c-6 71
-17 195 -24 277 l-12 147 -40 -2 c-23 -1 -61 -3 -85 -5z"/>
<path d="M4210 2665 c0 -8 -14 -138 -31 -287 -16 -150 -33 -299 -36 -331 l-6
-58 84 3 84 3 9 63 c9 61 10 62 42 62 32 0 32 -1 39 -60 4 -33 11 -62 15 -65
4 -3 42 -2 84 1 l76 7 -6 41 c-3 23 -18 120 -34 216 -16 96 -38 229 -48 295
l-18 120 -127 3 c-108 2 -127 0 -127 -13z m151 -247 c4 -46 11 -104 14 -130
l7 -48 -32 0 -33 0 7 93 c9 116 17 179 24 173 2 -3 8 -42 13 -88z"/>
<path d="M6287 2204 c-3 -27 -6 -124 -6 -216 l-1 -168 45 0 45 0 0 84 0 83 39
7 c57 9 66 26 66 122 0 109 -13 124 -113 132 l-70 5 -5 -49z m114 -64 c5 -52
-1 -80 -16 -80 -11 0 -15 13 -15 53 0 30 3 57 7 61 10 10 21 -6 24 -34z"/>
<path d="M2138 2213 c-42 -27 -48 -53 -48 -208 0 -158 7 -188 51 -211 81 -41
145 2 155 104 l7 62 -47 0 -46 0 0 -49 c0 -51 -15 -75 -31 -50 -10 16 -12 259
-3 283 3 9 12 16 20 16 10 0 14 -15 14 -60 0 -61 1 -62 45 -62 42 0 45 2 45
40 0 52 -17 106 -39 126 -28 26 -90 30 -123 9z"/>
<path d="M6061 2103 c-5 -21 -21 -82 -35 -135 -14 -54 -26 -116 -26 -138 l0
-40 49 0 50 0 3 -37 c3 -38 7 -40 68 -34 6 1 10 17 10 36 0 24 5 35 15 35 10
0 15 10 15 34 0 21 -6 36 -15 40 -12 4 -15 30 -15 141 l0 135 -55 0 -54 0 -10
-37z m39 -153 c0 -83 -1 -90 -20 -90 -11 0 -20 3 -20 8 0 16 33 172 36 172 2
0 4 -40 4 -90z"/>
<path d="M2410 1876 l0 -216 70 0 70 0 0 39 c0 35 -3 40 -26 43 l-26 3 -1 170
-2 170 -42 3 -43 3 0 -215z"/>
<path d="M5716 1949 c-3 -55 -4 -105 -1 -110 4 -5 22 -9 42 -9 26 0 36 5 40
20 7 27 31 25 35 -2 2 -13 2 -58 0 -100 -3 -59 -7 -78 -18 -78 -9 0 -14 12
-15 35 -1 19 -3 40 -4 45 -1 6 -3 15 -4 21 0 6 -17 9 -38 7 l-38 -3 3 -55 c2
-47 7 -59 34 -84 27 -25 36 -28 77 -23 57 6 77 30 86 102 8 57 -1 172 -13 192
-15 23 -56 31 -84 17 -28 -14 -28 -14 -28 21 l0 35 55 0 55 0 0 35 0 35 -88 0
-89 0 -7 -101z"/>
<path d="M2725 1998 c-2 -13 -11 -97 -20 -188 -9 -91 -18 -177 -21 -192 -5
-27 -4 -28 40 -28 45 0 45 0 48 37 2 26 8 39 20 41 14 3 19 -6 24 -37 6 -40 8
-41 45 -41 30 0 39 4 39 18 0 9 -10 106 -22 215 l-23 197 -62 0 c-57 0 -63 -2
-68 -22z m84 -225 c1 -23 -4 -33 -14 -33 -17 0 -20 64 -8 135 l8 40 6 -55 c4
-30 7 -70 8 -87z"/>
<path d="M5453 1935 c-32 -23 -43 -75 -43 -213 0 -174 19 -212 108 -212 33 0
45 6 66 31 26 30 26 33 26 191 l0 160 -29 29 c-34 33 -91 40 -128 14z m72
-205 c0 -105 -4 -155 -11 -157 -18 -6 -24 33 -24 164 0 126 5 156 24 150 7 -2
11 -52 11 -157z"/>
<path d="M2987 1932 c-15 -3 -17 -10 -13 -40 3 -21 13 -95 21 -167 8 -71 18
-152 21 -178 l7 -48 66 3 66 3 16 155 c9 85 19 180 23 211 7 53 6 57 -16 62
-12 4 -32 4 -44 1 -24 -6 -27 -18 -41 -189 l-7 -90 -13 134 c-7 74 -15 137
-18 139 -6 7 -47 9 -68 4z"/>
<path d="M5155 1876 l-30 -24 -3 -157 c-4 -181 3 -210 56 -232 43 -18 82 -10
113 23 23 25 24 31 24 191 l0 165 -33 29 c-41 36 -85 38 -127 5z m79 -52 c3
-9 6 -73 6 -144 0 -136 -4 -160 -26 -160 -11 0 -14 29 -14 153 0 85 3 157 7
160 11 11 20 8 27 -9z"/>
<path d="M3312 1648 l3 -213 73 -3 72 -3 0 46 c0 43 -1 45 -30 45 -29 0 -30 1
-30 50 0 49 0 50 31 50 24 0 30 3 25 16 -3 9 -6 27 -6 40 0 20 -4 25 -22 22
-20 -3 -23 2 -26 40 -3 41 -2 42 27 42 29 0 31 2 31 40 l0 40 -75 0 -75 0 2
-212z"/>
<path d="M4891 1849 c-40 -16 -50 -39 -51 -112 l0 -67 54 -53 c56 -54 72 -84
61 -117 -12 -39 -35 -23 -35 25 l0 45 -40 0 -40 0 0 -49 c0 -73 31 -106 99
-106 64 0 91 24 98 86 8 74 -11 123 -67 170 -44 37 -50 47 -50 81 0 48 23 48
28 0 3 -30 6 -32 43 -32 36 0 39 2 39 29 0 87 -61 131 -139 100z"/>
<path d="M3684 1818 c-59 -15 -68 -36 -72 -173 -7 -214 12 -265 102 -265 37 0
48 5 70 31 26 30 26 33 26 189 0 154 -1 159 -25 188 -28 34 -56 42 -101 30z
m46 -212 c0 -145 -7 -183 -28 -161 -9 9 -15 239 -7 281 3 20 12 34 20 34 13 0
15 -26 15 -154z"/>
<path d="M3900 1705 l0 -105 39 0 c30 0 40 4 44 20 3 11 10 20 16 20 16 0 22
-38 19 -120 -2 -62 -6 -75 -20 -78 -15 -3 -18 4 -18 47 l0 51 -40 0 -40 0 0
-45 c0 -51 20 -99 45 -109 36 -14 101 -6 123 14 30 28 35 56 30 165 -5 128
-30 155 -111 120 -16 -7 -18 -3 -15 26 3 33 4 34 56 37 50 3 52 4 52 33 l0 29
-90 0 -90 0 0 -105z"/>
<path d="M4210 1595 l0 -215 71 0 c68 0 106 11 121 34 4 6 8 88 8 183 l0 172
-26 20 c-22 17 -41 21 -100 21 l-74 0 0 -215z m118 19 c3 -124 -2 -164 -18
-164 -6 0 -10 57 -10 146 0 112 3 145 13 142 8 -3 13 -39 15 -124z"/>
<path d="M4550 1595 l0 -215 75 0 75 0 0 39 c0 37 -2 40 -32 43 -32 3 -33 4
-33 53 0 47 2 50 25 50 22 0 25 5 28 37 3 34 1 37 -25 40 -25 3 -28 7 -31 46
-3 41 -2 42 27 42 29 0 31 2 31 40 l0 40 -70 0 -70 0 0 -215z"/>
</g>
</svg>
